<?xml version="1.0" encoding="UTF-8" standalone="no"?>
<!DOCTYPE svg PUBLIC "-//W3C//DTD SVG 1.1//EN"
 "http://www.w3.org/Graphics/SVG/1.1/DTD/svg11.dtd">
<!-- Generated by graphviz version 2.43.0 (0)
 -->
<!-- Title: g Pages: 1 -->
<svg width="361pt" height="260pt"
 viewBox="0.00 0.00 360.50 260.00" xmlns="http://www.w3.org/2000/svg" xmlns:xlink="http://www.w3.org/1999/xlink">
<g id="graph0" class="graph" transform="scale(1 1) rotate(0) translate(4 256)">
<title>g</title>
<!-- e -->
<g id="node1" class="node">
<title>e</title>
<polygon fill="none" stroke="black" points="54,-36 0,-36 0,0 54,0 54,-36"/>
<text text-anchor="middle" x="27" y="-14.3" font-family="Times,serif" font-size="14.00">e:0.4</text>
</g>
<!-- t -->
<g id="node2" class="node">
<title>t</title>
<polygon fill="none" stroke="black" points="126,-36 72,-36 72,0 126,0 126,-36"/>
<text text-anchor="middle" x="99" y="-14.3" font-family="Times,serif" font-size="14.00">t:0.3</text>
</g>
<!-- a -->
<g id="node3" class="node">
<title>a</title>
<polygon fill="none" stroke="black" points="198,-36 144,-36 144,0 198,0 198,-36"/>
<text text-anchor="middle" x="171" y="-14.3" font-family="Times,serif" font-size="14.00">a:0.2</text>
</g>
<!-- o -->
<g id="node4" class="node">
<title>o</title>
<polygon fill="none" stroke="black" points="277.5,-36 216.5,-36 216.5,0 277.5,0 277.5,-36"/>
<text text-anchor="middle" x="247" y="-14.3" font-family="Times,serif" font-size="14.00">o:0.05</text>
</g>
<!-- i -->
<g id="node5" class="node">
<title>i</title>
<polygon fill="none" stroke="black" points="352.5,-36 295.5,-36 295.5,0 352.5,0 352.5,-36"/>
<text text-anchor="middle" x="324" y="-14.3" font-family="Times,serif" font-size="14.00">i:0.05</text>
</g>
<!-- root -->
<!-- d0 -->
<!-- root&#45;&#45;d0 -->
<!-- taoi -->
<g id="node9" class="node">
<title>taoi</title>
<polygon fill="none" stroke="black" points="162,-180 108,-180 108,-144 162,-144 162,-180"/>
</g>
<!-- root&#45;&#45;taoi -->
<!-- d1 -->
<!-- d0&#45;&#45;d1 -->
<!-- d1&#45;&#45;e -->
<!-- ta -->
<g id="node10" class="node">
<title>ta</title>
<polygon fill="none" stroke="black" points="162,-108 108,-108 108,-72 162,-72 162,-108"/>
</g>
<!-- taoi&#45;&#45;ta -->
<g id="edge5" class="edge">
<title>taoi&#45;&#45;ta</title>
<path fill="none" stroke="black" d="M135,-143.7C135,-132.85 135,-118.92 135,-108.1"/>
</g>
<!-- oi -->
<g id="node11" class="node">
<title>oi</title>
<polygon fill="none" stroke="black" points="274,-108 220,-108 220,-72 274,-72 274,-108"/>
</g>
<!-- taoi&#45;&#45;oi -->
<g id="edge6" class="edge">
<title>taoi&#45;&#45;oi</title>
<path fill="none" stroke="black" d="M162.11,-144.05C179.59,-133.13 202.24,-118.97 219.75,-108.03"/>
</g>
<!-- ta&#45;&#45;t -->
<g id="edge7" class="edge">
<title>ta&#45;&#45;t</title>
<path fill="none" stroke="black" d="M126.1,-71.7C120.52,-60.85 113.36,-46.92 107.8,-36.1"/>
</g>
<!-- ta&#45;&#45;a -->
<g id="edge8" class="edge">
<title>ta&#45;&#45;a</title>
<path fill="none" stroke="black" d="M143.9,-71.7C149.48,-60.85 156.64,-46.92 162.2,-36.1"/>
</g>
<!-- oi&#45;&#45;o -->
<g id="edge9" class="edge">
<title>oi&#45;&#45;o</title>
<path fill="none" stroke="black" d="M247,-71.7C247,-60.85 247,-46.92 247,-36.1"/>
</g>
<!-- oi&#45;&#45;i -->
<g id="edge10" class="edge">
<title>oi&#45;&#45;i</title>
<path fill="none" stroke="black" d="M266.03,-71.7C277.97,-60.85 293.29,-46.92 305.19,-36.1"/>
</g>
</g>
</svg>
