<?xml version="1.0" encoding="UTF-8" standalone="no"?>
<!DOCTYPE svg PUBLIC "-//W3C//DTD SVG 1.1//EN"
 "http://www.w3.org/Graphics/SVG/1.1/DTD/svg11.dtd">
<!-- Generated by graphviz version 2.43.0 (0)
 -->
<!-- Title: g Pages: 1 -->
<svg width="289pt" height="305pt"
 viewBox="0.00 0.00 288.50 305.00" xmlns="http://www.w3.org/2000/svg" xmlns:xlink="http://www.w3.org/1999/xlink">
<g id="graph0" class="graph" transform="scale(1 1) rotate(0) translate(4 301)">
<title>g</title>
<!-- e -->
<g id="node1" class="node">
<title>e</title>
<polygon fill="none" stroke="black" points="96,-210 42,-210 42,-174 96,-174 96,-210"/>
<text text-anchor="middle" x="69" y="-188.3" font-family="Times,serif" font-size="14.00">e:0.4</text>
</g>
<!-- t -->
<g id="node2" class="node">
<title>t</title>
<polygon fill="none" stroke="black" points="54,-36 0,-36 0,0 54,0 54,-36"/>
<text text-anchor="middle" x="27" y="-14.3" font-family="Times,serif" font-size="14.00">t:0.3</text>
</g>
<!-- a -->
<g id="node3" class="node">
<title>a</title>
<polygon fill="none" stroke="black" points="126,-36 72,-36 72,0 126,0 126,-36"/>
<text text-anchor="middle" x="99" y="-14.3" font-family="Times,serif" font-size="14.00">a:0.2</text>
</g>
<!-- o -->
<g id="node4" class="node">
<title>o</title>
<polygon fill="none" stroke="black" points="205.5,-36 144.5,-36 144.5,0 205.5,0 205.5,-36"/>
<text text-anchor="middle" x="175" y="-14.3" font-family="Times,serif" font-size="14.00">o:0.05</text>
</g>
<!-- i -->
<g id="node5" class="node">
<title>i</title>
<polygon fill="none" stroke="black" points="280.5,-36 223.5,-36 223.5,0 280.5,0 280.5,-36"/>
<text text-anchor="middle" x="252" y="-14.3" font-family="Times,serif" font-size="14.00">i:0.05</text>
</g>
<!-- root -->
<g id="node6" class="node">
<title>root</title>
<polygon fill="none" stroke="black" points="112,-297 58,-297 58,-261 112,-261 112,-297"/>
</g>
<!-- root&#45;&#45;e -->
<g id="edge1" class="edge">
<title>root&#45;&#45;e</title>
<path fill="none" stroke="black" d="M81.76,-260.8C78.99,-246.05 75.01,-224.92 72.23,-210.18"/>
<text text-anchor="middle" x="83" y="-231.8" font-family="Times,serif" font-size="14.00">1</text>
</g>
<!-- taoi -->
<g id="node7" class="node">
<title>taoi</title>
<polygon fill="none" stroke="black" points="168,-210 114,-210 114,-174 168,-174 168,-210"/>
</g>
<!-- root&#45;&#45;taoi -->
<g id="edge2" class="edge">
<title>root&#45;&#45;taoi</title>
<path fill="none" stroke="black" d="M96.33,-260.8C106.05,-246.05 119.97,-224.92 129.68,-210.18"/>
<text text-anchor="middle" x="122" y="-231.8" font-family="Times,serif" font-size="14.00">0</text>
</g>
<!-- ta -->
<g id="node8" class="node">
<title>ta</title>
<polygon fill="none" stroke="black" points="126,-123 72,-123 72,-87 126,-87 126,-123"/>
</g>
<!-- taoi&#45;&#45;ta -->
<g id="edge3" class="edge">
<title>taoi&#45;&#45;ta</title>
<path fill="none" stroke="black" d="M132.5,-173.8C125.21,-159.05 114.77,-137.92 107.49,-123.18"/>
<text text-anchor="middle" x="132.5" y="-144.8" font-family="Times,serif" font-size="14.00">01</text>
</g>
<!-- oi -->
<g id="node9" class="node">
<title>oi</title>
<polygon fill="none" stroke="black" points="202,-123 148,-123 148,-87 202,-87 202,-123"/>
</g>
<!-- taoi&#45;&#45;oi -->
<g id="edge4" class="edge">
<title>taoi&#45;&#45;oi</title>
<path fill="none" stroke="black" d="M147.88,-173.8C153.78,-159.05 162.23,-137.92 168.13,-123.18"/>
<text text-anchor="middle" x="170.5" y="-144.8" font-family="Times,serif" font-size="14.00">00</text>
</g>
<!-- ta&#45;&#45;t -->
<g id="edge5" class="edge">
<title>ta&#45;&#45;t</title>
<path fill="none" stroke="black" d="M82.82,-86.76C77.68,-81.16 72.03,-74.88 67,-69 57.89,-58.36 48.06,-46.08 40.42,-36.35"/>
<text text-anchor="middle" x="81" y="-57.8" font-family="Times,serif" font-size="14.00">011</text>
</g>
<!-- ta&#45;&#45;a -->
<g id="edge6" class="edge">
<title>ta&#45;&#45;a</title>
<path fill="none" stroke="black" d="M99,-86.8C99,-72.05 99,-50.92 99,-36.18"/>
<text text-anchor="middle" x="113" y="-57.8" font-family="Times,serif" font-size="14.00">010</text>
</g>
<!-- oi&#45;&#45;o -->
<g id="edge7" class="edge">
<title>oi&#45;&#45;o</title>
<path fill="none" stroke="black" d="M175,-86.8C175,-72.05 175,-50.92 175,-36.18"/>
<text text-anchor="middle" x="189" y="-57.8" font-family="Times,serif" font-size="14.00">001</text>
</g>
<!-- oi&#45;&#45;i -->
<g id="edge8" class="edge">
<title>oi&#45;&#45;i</title>
<path fill="none" stroke="black" d="M190.65,-86.93C195.86,-81.24 201.69,-74.85 207,-69 216.89,-58.1 227.94,-45.82 236.62,-36.15"/>
<text text-anchor="middle" x="233" y="-57.8" font-family="Times,serif" font-size="14.00">000</text>
</g>
</g>
</svg>
