<?xml version="1.0" encoding="UTF-8" standalone="no"?>
<!DOCTYPE svg PUBLIC "-//W3C//DTD SVG 1.1//EN"
 "http://www.w3.org/Graphics/SVG/1.1/DTD/svg11.dtd">
<!-- Generated by graphviz version 2.43.0 (0)
 -->
<!-- Title: g Pages: 1 -->
<svg width="361pt" height="44pt"
 viewBox="0.00 0.00 360.50 44.00" xmlns="http://www.w3.org/2000/svg" xmlns:xlink="http://www.w3.org/1999/xlink">
<g id="graph0" class="graph" transform="scale(1 1) rotate(0) translate(4 40)">
<title>g</title>
<polygon fill="white" stroke="transparent" points="-4,4 -4,-40 356.5,-40 356.5,4 -4,4"/>
<!-- e -->
<g id="node1" class="node">
<title>e</title>
<polygon fill="none" stroke="black" points="54,-36 0,-36 0,0 54,0 54,-36"/>
<text text-anchor="middle" x="27" y="-14.3" font-family="Times,serif" font-size="14.00">e:0.4</text>
</g>
<!-- t -->
<g id="node2" class="node">
<title>t</title>
<polygon fill="none" stroke="black" points="126,-36 72,-36 72,0 126,0 126,-36"/>
<text text-anchor="middle" x="99" y="-14.3" font-family="Times,serif" font-size="14.00">t:0.3</text>
</g>
<!-- a -->
<g id="node3" class="node">
<title>a</title>
<polygon fill="none" stroke="black" points="198,-36 144,-36 144,0 198,0 198,-36"/>
<text text-anchor="middle" x="171" y="-14.3" font-family="Times,serif" font-size="14.00">a:0.2</text>
</g>
<!-- o -->
<g id="node4" class="node">
<title>o</title>
<polygon fill="none" stroke="black" points="277.5,-36 216.5,-36 216.5,0 277.5,0 277.5,-36"/>
<text text-anchor="middle" x="247" y="-14.3" font-family="Times,serif" font-size="14.00">o:0.05</text>
</g>
<!-- i -->
<g id="node5" class="node">
<title>i</title>
<polygon fill="none" stroke="black" points="352.5,-36 295.5,-36 295.5,0 352.5,0 352.5,-36"/>
<text text-anchor="middle" x="324" y="-14.3" font-family="Times,serif" font-size="14.00">i:0.05</text>
</g>
</g>
</svg>
