<?xml version="1.0" encoding="UTF-8" standalone="no"?>
<!DOCTYPE svg PUBLIC "-//W3C//DTD SVG 1.1//EN"
 "http://www.w3.org/Graphics/SVG/1.1/DTD/svg11.dtd">
<!-- Generated by graphviz version 2.43.0 (0)
 -->
<!-- Title: g Pages: 1 -->
<svg width="289pt" height="260pt"
 viewBox="0.00 0.00 288.50 260.00" xmlns="http://www.w3.org/2000/svg" xmlns:xlink="http://www.w3.org/1999/xlink">
<g id="graph0" class="graph" transform="scale(1 1) rotate(0) translate(4 256)">
<title>g</title>
<!-- e -->
<g id="node1" class="node">
<title>e</title>
<polygon fill="none" stroke="black" points="92,-180 38,-180 38,-144 92,-144 92,-180"/>
<text text-anchor="middle" x="65" y="-158.3" font-family="Times,serif" font-size="14.00">e:0.4</text>
</g>
<!-- t -->
<g id="node2" class="node">
<title>t</title>
<polygon fill="none" stroke="black" points="54,-36 0,-36 0,0 54,0 54,-36"/>
<text text-anchor="middle" x="27" y="-14.3" font-family="Times,serif" font-size="14.00">t:0.3</text>
</g>
<!-- a -->
<g id="node3" class="node">
<title>a</title>
<polygon fill="none" stroke="black" points="126,-36 72,-36 72,0 126,0 126,-36"/>
<text text-anchor="middle" x="99" y="-14.3" font-family="Times,serif" font-size="14.00">a:0.2</text>
</g>
<!-- o -->
<g id="node4" class="node">
<title>o</title>
<polygon fill="none" stroke="black" points="205.5,-36 144.5,-36 144.5,0 205.5,0 205.5,-36"/>
<text text-anchor="middle" x="175" y="-14.3" font-family="Times,serif" font-size="14.00">o:0.05</text>
</g>
<!-- i -->
<g id="node5" class="node">
<title>i</title>
<polygon fill="none" stroke="black" points="280.5,-36 223.5,-36 223.5,0 280.5,0 280.5,-36"/>
<text text-anchor="middle" x="252" y="-14.3" font-family="Times,serif" font-size="14.00">i:0.05</text>
</g>
<!-- root -->
<g id="node6" class="node">
<title>root</title>
<polygon fill="none" stroke="black" points="128,-252 74,-252 74,-216 128,-216 128,-252"/>
</g>
<!-- root&#45;&#45;e -->
<g id="edge1" class="edge">
<title>root&#45;&#45;e</title>
<path fill="none" stroke="black" d="M92.1,-215.7C86.52,-204.85 79.36,-190.92 73.8,-180.1"/>
</g>
<!-- taoi -->
<g id="node7" class="node">
<title>taoi</title>
<polygon fill="none" stroke="black" points="164,-180 110,-180 110,-144 164,-144 164,-180"/>
</g>
<!-- root&#45;&#45;taoi -->
<g id="edge2" class="edge">
<title>root&#45;&#45;taoi</title>
<path fill="none" stroke="black" d="M109.9,-215.7C115.48,-204.85 122.64,-190.92 128.2,-180.1"/>
</g>
<!-- ta -->
<g id="node8" class="node">
<title>ta</title>
<polygon fill="none" stroke="black" points="126,-108 72,-108 72,-72 126,-72 126,-108"/>
</g>
<!-- taoi&#45;&#45;ta -->
<g id="edge3" class="edge">
<title>taoi&#45;&#45;ta</title>
<path fill="none" stroke="black" d="M127.61,-143.7C121.72,-132.85 114.15,-118.92 108.29,-108.1"/>
</g>
<!-- oi -->
<g id="node9" class="node">
<title>oi</title>
<polygon fill="none" stroke="black" points="202,-108 148,-108 148,-72 202,-72 202,-108"/>
</g>
<!-- taoi&#45;&#45;oi -->
<g id="edge4" class="edge">
<title>taoi&#45;&#45;oi</title>
<path fill="none" stroke="black" d="M146.39,-143.7C152.28,-132.85 159.85,-118.92 165.71,-108.1"/>
</g>
<!-- ta&#45;&#45;t -->
<g id="edge5" class="edge">
<title>ta&#45;&#45;t</title>
<path fill="none" stroke="black" d="M81.2,-71.7C70.04,-60.85 55.71,-46.92 44.59,-36.1"/>
</g>
<!-- ta&#45;&#45;a -->
<g id="edge6" class="edge">
<title>ta&#45;&#45;a</title>
<path fill="none" stroke="black" d="M99,-71.7C99,-60.85 99,-46.92 99,-36.1"/>
</g>
<!-- oi&#45;&#45;o -->
<g id="edge7" class="edge">
<title>oi&#45;&#45;o</title>
<path fill="none" stroke="black" d="M175,-71.7C175,-60.85 175,-46.92 175,-36.1"/>
</g>
<!-- oi&#45;&#45;i -->
<g id="edge8" class="edge">
<title>oi&#45;&#45;i</title>
<path fill="none" stroke="black" d="M194.03,-71.7C205.97,-60.85 221.29,-46.92 233.19,-36.1"/>
</g>
</g>
</svg>
